<svg width="97" height="19" viewBox="0 0 97 19" fill="none" xmlns="http://www.w3.org/2000/svg">
<path d="M0 14V0H3.24V11.36H10.26V14H0Z" fill="#FF003D"/>
<path d="M16.9117 14.16C15.7651 14.16 14.7451 13.92 13.8517 13.44C12.9717 12.96 12.2717 12.3067 11.7517 11.48C11.2451 10.64 10.9917 9.68667 10.9917 8.62C10.9917 7.54 11.2451 6.58667 11.7517 5.76C12.2717 4.92 12.9717 4.26667 13.8517 3.8C14.7451 3.32 15.7651 3.08 16.9117 3.08C18.0451 3.08 19.0584 3.32 19.9517 3.8C20.8451 4.26667 21.5451 4.91333 22.0517 5.74C22.5584 6.56667 22.8117 7.52667 22.8117 8.62C22.8117 9.68667 22.5584 10.64 22.0517 11.48C21.5451 12.3067 20.8451 12.96 19.9517 13.44C19.0584 13.92 18.0451 14.16 16.9117 14.16ZM16.9117 11.6C17.4317 11.6 17.8984 11.48 18.3117 11.24C18.7251 11 19.0517 10.66 19.2917 10.22C19.5317 9.76667 19.6517 9.23333 19.6517 8.62C19.6517 7.99333 19.5317 7.46 19.2917 7.02C19.0517 6.58 18.7251 6.24 18.3117 6C17.8984 5.76 17.4317 5.64 16.9117 5.64C16.3917 5.64 15.9251 5.76 15.5117 6C15.0984 6.24 14.7651 6.58 14.5117 7.02C14.2717 7.46 14.1517 7.99333 14.1517 8.62C14.1517 9.23333 14.2717 9.76667 14.5117 10.22C14.7651 10.66 15.0984 11 15.5117 11.24C15.9251 11.48 16.3917 11.6 16.9117 11.6Z" fill="#FF003D"/>
<path d="M29.9572 18.04C28.9439 18.04 27.9639 17.9133 27.0172 17.66C26.0839 17.42 25.3039 17.0533 24.6772 16.56L25.9172 14.32C26.3705 14.6933 26.9439 14.9867 27.6372 15.2C28.3439 15.4267 29.0372 15.54 29.7172 15.54C30.8239 15.54 31.6239 15.2933 32.1172 14.8C32.6239 14.3067 32.8772 13.5733 32.8772 12.6V10.98L33.0772 8.28L33.0372 5.56V3.24H35.9972V12.2C35.9972 14.2 35.4772 15.6733 34.4372 16.62C33.3972 17.5667 31.9039 18.04 29.9572 18.04ZM29.4772 13.48C28.4772 13.48 27.5705 13.2667 26.7572 12.84C25.9572 12.4 25.3105 11.7933 24.8172 11.02C24.3372 10.2333 24.0972 9.32 24.0972 8.28C24.0972 7.22667 24.3372 6.31333 24.8172 5.54C25.3105 4.75333 25.9572 4.14667 26.7572 3.72C27.5705 3.29333 28.4772 3.08 29.4772 3.08C30.3839 3.08 31.1839 3.26667 31.8772 3.64C32.5705 4 33.1105 4.56667 33.4972 5.34C33.8839 6.1 34.0772 7.08 34.0772 8.28C34.0772 9.46667 33.8839 10.4467 33.4972 11.22C33.1105 11.98 32.5705 12.5467 31.8772 12.92C31.1839 13.2933 30.3839 13.48 29.4772 13.48ZM30.0972 10.92C30.6439 10.92 31.1305 10.8133 31.5572 10.6C31.9839 10.3733 32.3172 10.06 32.5572 9.66C32.7972 9.26 32.9172 8.8 32.9172 8.28C32.9172 7.74667 32.7972 7.28667 32.5572 6.9C32.3172 6.5 31.9839 6.19333 31.5572 5.98C31.1305 5.75333 30.6439 5.64 30.0972 5.64C29.5505 5.64 29.0639 5.75333 28.6372 5.98C28.2105 6.19333 27.8705 6.5 27.6172 6.9C27.3772 7.28667 27.2572 7.74667 27.2572 8.28C27.2572 8.8 27.3772 9.26 27.6172 9.66C27.8705 10.06 28.2105 10.3733 28.6372 10.6C29.0639 10.8133 29.5505 10.92 30.0972 10.92Z" fill="#FF003D"/>
<path d="M44.0211 14.16C42.8744 14.16 41.8544 13.92 40.9611 13.44C40.0811 12.96 39.3811 12.3067 38.8611 11.48C38.3544 10.64 38.1011 9.68667 38.1011 8.62C38.1011 7.54 38.3544 6.58667 38.8611 5.76C39.3811 4.92 40.0811 4.26667 40.9611 3.8C41.8544 3.32 42.8744 3.08 44.0211 3.08C45.1544 3.08 46.1678 3.32 47.0611 3.8C47.9544 4.26667 48.6544 4.91333 49.1611 5.74C49.6678 6.56667 49.9211 7.52667 49.9211 8.62C49.9211 9.68667 49.6678 10.64 49.1611 11.48C48.6544 12.3067 47.9544 12.96 47.0611 13.44C46.1678 13.92 45.1544 14.16 44.0211 14.16ZM44.0211 11.6C44.5411 11.6 45.0078 11.48 45.4211 11.24C45.8344 11 46.1611 10.66 46.4011 10.22C46.6411 9.76667 46.7611 9.23333 46.7611 8.62C46.7611 7.99333 46.6411 7.46 46.4011 7.02C46.1611 6.58 45.8344 6.24 45.4211 6C45.0078 5.76 44.5411 5.64 44.0211 5.64C43.5011 5.64 43.0344 5.76 42.6211 6C42.2078 6.24 41.8744 6.58 41.6211 7.02C41.3811 7.46 41.2611 7.99333 41.2611 8.62C41.2611 9.23333 41.3811 9.76667 41.6211 10.22C41.8744 10.66 42.2078 11 42.6211 11.24C43.0344 11.48 43.5011 11.6 44.0211 11.6Z" fill="#FF003D"/>
<path d="M56.4066 14.16C55.1399 14.16 54.1532 13.84 53.4466 13.2C52.7399 12.5467 52.3866 11.58 52.3866 10.3V0.860001H55.5066V10.26C55.5066 10.7133 55.6266 11.0667 55.8666 11.32C56.1066 11.56 56.4332 11.68 56.8466 11.68C57.3399 11.68 57.7599 11.5467 58.1066 11.28L58.9466 13.48C58.6266 13.7067 58.2399 13.88 57.7866 14C57.3466 14.1067 56.8866 14.16 56.4066 14.16ZM50.7266 5.88V3.48H58.1866V5.88H50.7266Z" fill="#FF003D"/>
<path d="M61.8627 18.04C61.3027 18.04 60.7493 17.9533 60.2027 17.78C59.656 17.6067 59.2093 17.3667 58.8627 17.06L60.0027 14.84C60.2427 15.0533 60.516 15.22 60.8227 15.34C61.1427 15.46 61.456 15.52 61.7627 15.52C62.2027 15.52 62.5493 15.4133 62.8027 15.2C63.0693 15 63.3093 14.66 63.5227 14.18L64.0827 12.86L64.3227 12.52L68.1827 3.24H71.1827L66.3227 14.66C65.976 15.5267 65.576 16.2067 65.1227 16.7C64.6827 17.1933 64.1893 17.54 63.6427 17.74C63.1093 17.94 62.516 18.04 61.8627 18.04ZM63.7027 14.42L58.9027 3.24H62.1227L65.8427 12.24L63.7027 14.42Z" fill="#FF003D"/>
<path d="M78.8158 14.16C77.9091 14.16 77.1158 13.96 76.4358 13.56C75.7558 13.16 75.2225 12.5533 74.8358 11.74C74.4624 10.9133 74.2758 9.87333 74.2758 8.62C74.2758 7.35333 74.4558 6.31333 74.8158 5.5C75.1758 4.68667 75.6958 4.08 76.3758 3.68C77.0558 3.28 77.8691 3.08 78.8158 3.08C79.8291 3.08 80.7358 3.31333 81.5358 3.78C82.3491 4.23333 82.9891 4.87333 83.4558 5.7C83.9358 6.52667 84.1758 7.5 84.1758 8.62C84.1758 9.75333 83.9358 10.7333 83.4558 11.56C82.9891 12.3867 82.3491 13.0267 81.5358 13.48C80.7358 13.9333 79.8291 14.16 78.8158 14.16ZM72.4558 17.88V3.24H75.4358V5.44L75.3758 8.64L75.5758 11.82V17.88H72.4558ZM78.2758 11.6C78.7958 11.6 79.2558 11.48 79.6558 11.24C80.0691 11 80.3958 10.66 80.6358 10.22C80.8891 9.76667 81.0158 9.23333 81.0158 8.62C81.0158 7.99333 80.8891 7.46 80.6358 7.02C80.3958 6.58 80.0691 6.24 79.6558 6C79.2558 5.76 78.7958 5.64 78.2758 5.64C77.7558 5.64 77.2891 5.76 76.8758 6C76.4624 6.24 76.1358 6.58 75.8958 7.02C75.6558 7.46 75.5358 7.99333 75.5358 8.62C75.5358 9.23333 75.6558 9.76667 75.8958 10.22C76.1358 10.66 76.4624 11 76.8758 11.24C77.2891 11.48 77.7558 11.6 78.2758 11.6Z" fill="#FF003D"/>
<path d="M91.6044 14.16C90.3777 14.16 89.2977 13.92 88.3644 13.44C87.4444 12.96 86.731 12.3067 86.2244 11.48C85.7177 10.64 85.4644 9.68667 85.4644 8.62C85.4644 7.54 85.711 6.58667 86.2044 5.76C86.711 4.92 87.3977 4.26667 88.2644 3.8C89.131 3.32 90.111 3.08 91.2044 3.08C92.2577 3.08 93.2044 3.30667 94.0444 3.76C94.8977 4.2 95.571 4.84 96.0644 5.68C96.5577 6.50667 96.8044 7.5 96.8044 8.66C96.8044 8.78 96.7977 8.92 96.7844 9.08C96.771 9.22667 96.7577 9.36667 96.7444 9.5H88.0044V7.68H95.1044L93.9044 8.22C93.9044 7.66 93.791 7.17333 93.5644 6.76C93.3377 6.34667 93.0244 6.02667 92.6244 5.8C92.2244 5.56 91.7577 5.44 91.2244 5.44C90.691 5.44 90.2177 5.56 89.8044 5.8C89.4044 6.02667 89.091 6.35333 88.8644 6.78C88.6377 7.19333 88.5244 7.68667 88.5244 8.26V8.74C88.5244 9.32667 88.651 9.84667 88.9044 10.3C89.171 10.74 89.5377 11.08 90.0044 11.32C90.4844 11.5467 91.0444 11.66 91.6844 11.66C92.2577 11.66 92.7577 11.5733 93.1844 11.4C93.6244 11.2267 94.0244 10.9667 94.3844 10.62L96.0444 12.42C95.551 12.98 94.931 13.4133 94.1844 13.72C93.4377 14.0133 92.5777 14.16 91.6044 14.16Z" fill="#FF003D"/>
</svg>
